<?xml version="1.0" encoding="utf-8"?>
<!-- Generator: Adobe Illustrator 18.0.0, SVG Export Plug-In . SVG Version: 6.00 Build 0)  -->
<!DOCTYPE svg PUBLIC "-//W3C//DTD SVG 1.1//EN" "http://www.w3.org/Graphics/SVG/1.1/DTD/svg11.dtd">
<svg version="1.1" id="Layer_1" xmlns="http://www.w3.org/2000/svg" xmlns:xlink="http://www.w3.org/1999/xlink" x="0px" y="0px"
	 viewBox="0 0 47.1 43.1" enable-background="new 0 0 47.1 43.1" xml:space="preserve">
<text transform="matrix(1 0 0 1 55.8716 30.147)" font-family="'Calibri-Bold'" font-size="36.1968" letter-spacing="-1">yogurt</text>
<g>
	<path d="M7.7,36.7c-0.1-0.1-0.2-0.2-0.2-0.3C5.2,32.2,2.9,28.1,0.6,24c-0.9-1.6-0.9-3.2,0-4.8c3.1-5.6,6.3-11.2,9.4-16.7
		c1-1.7,2.6-2.5,4.6-2.5c0.6,0,1.2,0,1.9,0c1.6,0,2.6,0.9,2.6,2.6c0,3.6,0,7.2,0,10.8c0,3.4,0.1,2.5-1.4,5.2
		c-3.3,5.9-6.5,11.7-9.8,17.6C7.9,36.3,7.8,36.5,7.7,36.7z"/>
	<path d="M39.5,36.7c-1-1.7-1.9-3.4-2.8-5c-2.7-4.9-5.5-9.7-8.2-14.6c-0.3-0.5-0.4-1-0.4-1.6c0-4.4,0-8.8,0-13.2C28,1,29,0,30.3,0
		c1,0,2.1,0,3.1,0.1c1.6,0.2,2.9,1.1,3.7,2.5c3.1,5.6,6.3,11.1,9.4,16.7c0.8,1.5,0.9,3,0.1,4.5c-2.3,4.2-4.6,8.4-7,12.7
		C39.6,36.5,39.5,36.5,39.5,36.7z"/>
	<path d="M23.5,43.1c-3.2,0-6.5,0-9.7,0c-1.9,0-3.4-1-4.2-2.7C9,38.9,9,37.4,9.7,36c1.4-2.6,2.9-5.1,4.5-7.6
		c0.1-0.1,0.4-0.2,0.6-0.2c4.7,0,9.4,0,14.2,0c1.1,0,2.3,0,3.4,0c0.3,0,0.5,0.1,0.6,0.3c1.4,2.4,2.8,4.7,4.2,7.1
		c1.3,2.3,0.9,5-1,6.4c-0.9,0.7-1.9,1-3,1C29.9,43.1,26.7,43.1,23.5,43.1C23.5,43.1,23.5,43.1,23.5,43.1z"/>
</g>
</svg>
