<svg role="img" xmlns="http://www.w3.org/2000/svg" xmlns:xlink="http://www.w3.org/1999/xlink" viewBox="0 0 146.8 46.8" enable-background="new 0 0 146.8 46.8" xml:space="preserve">
<g>
	<path display="none" fill="#FFFFFF" d="M49.8,45.3c-16.3,0-32.5,0-48.8,0C1,30.6,1,16,1,1.4c16.3,0,32.5,0,48.8,0
		C49.8,16,49.8,30.6,49.8,45.3z M8.8,38.6c0.1-0.2,0.2-0.3,0.3-0.5c3.3-5.9,6.7-11.8,9.9-17.8c1.5-2.7,1.4-1.8,1.4-5.2
		c0-3.7,0-7.3,0-11c0-1.7-0.9-2.6-2.6-2.6c-0.6,0-1.3,0-1.9,0c-2,0-3.7,0.8-4.7,2.5C8.1,9.6,4.9,15.3,1.7,20.9
		c-0.9,1.6-0.9,3.2,0,4.8c2.3,4.2,4.6,8.4,6.9,12.5C8.7,38.4,8.7,38.5,8.8,38.6z M41,38.6c0.1-0.1,0.1-0.2,0.2-0.2
		c2.4-4.3,4.7-8.5,7.1-12.8c0.8-1.5,0.8-3.1-0.1-4.6C45,15.4,41.9,9.8,38.7,4.1c-0.8-1.5-2.1-2.3-3.7-2.5c-1-0.1-2.1-0.1-3.1-0.1
		c-1.3,0-2.3,1-2.3,2.3c0,4.4,0,8.9,0,13.3c0,0.5,0.2,1.1,0.4,1.6c2.7,4.9,5.5,9.9,8.3,14.8C39.1,35.2,40.1,36.9,41,38.6z
		 M24.9,45.1C24.9,45.1,24.9,45.1,24.9,45.1c3.2,0,6.5,0,9.7,0c1.1,0,2.1-0.4,3-1c2-1.5,2.4-4.2,1-6.5c-1.4-2.4-2.8-4.8-4.2-7.2
		c-0.2-0.3-0.3-0.3-0.6-0.3c-1.2,0-2.3,0-3.5,0c-4.8,0-9.6,0-14.4,0c-0.2,0-0.5,0.1-0.6,0.2c-1.5,2.6-3.1,5.1-4.5,7.7
		c-0.8,1.4-0.8,2.9-0.1,4.4c0.8,1.8,2.3,2.7,4.3,2.7C18.4,45.2,21.7,45.1,24.9,45.1z"/>
	<path d="M8.8,38.6c-0.1-0.1-0.2-0.2-0.2-0.3C6.3,34.1,4,29.9,1.7,25.8c-0.9-1.6-0.9-3.2,0-4.8C4.9,15.3,8.1,9.6,11.3,4
		c1-1.8,2.7-2.5,4.7-2.5c0.6,0,1.3,0,1.9,0c1.7,0,2.6,0.9,2.6,2.6c0,3.7,0,7.3,0,11c0,3.5,0.1,2.5-1.4,5.2
		c-3.3,5.9-6.6,11.9-9.9,17.8C9,38.3,8.9,38.4,8.8,38.6z"/>
	<path d="M41,38.6c-1-1.7-1.9-3.4-2.8-5.1c-2.8-4.9-5.5-9.9-8.3-14.8c-0.3-0.5-0.4-1.1-0.4-1.6c0-4.4,0-8.9,0-13.3
		c0-1.3,1-2.3,2.3-2.3c1,0,2.1,0,3.1,0.1c1.6,0.2,2.9,1.1,3.7,2.5C41.9,9.8,45,15.4,48.2,21c0.8,1.5,0.9,3.1,0.1,4.6
		c-2.3,4.3-4.7,8.6-7.1,12.8C41.2,38.5,41.1,38.5,41,38.6z"/>
	<path d="M24.9,45.1c-3.3,0-6.6,0-9.8,0c-1.9,0-3.4-1-4.3-2.7c-0.7-1.4-0.7-3,0.1-4.4c1.4-2.6,3-5.1,4.5-7.7
		c0.1-0.1,0.4-0.2,0.6-0.2c4.8,0,9.6,0,14.4,0c1.2,0,2.3,0,3.5,0c0.3,0,0.5,0.1,0.6,0.3c1.4,2.4,2.8,4.8,4.2,7.2
		c1.4,2.3,0.9,5.1-1,6.5c-0.9,0.7-1.9,1-3,1C31.4,45.1,28.2,45.1,24.9,45.1C24.9,45.1,24.9,45.1,24.9,45.1z"/>
</g>
<g>
	<path d="M67.6,31.3l-1.9,5.7c-0.1,0.3-0.4,0.5-0.9,0.6c-0.5,0.1-1.2,0.2-2.1,0.2c-0.5,0-0.9,0-1.1-0.1c-0.3,0-0.5-0.1-0.6-0.2
		c-0.1-0.1-0.2-0.2-0.2-0.4c0-0.1,0-0.3,0.1-0.5l2.1-5.4c-0.2-0.1-0.3-0.2-0.4-0.3c-0.1-0.1-0.2-0.3-0.3-0.5l-5.5-14.7
		c-0.2-0.4-0.2-0.7-0.2-1c0-0.2,0.1-0.4,0.2-0.5c0.1-0.1,0.4-0.2,0.7-0.3c0.3,0,0.8-0.1,1.4-0.1c0.5,0,0.9,0,1.2,0
		c0.3,0,0.5,0.1,0.7,0.1c0.2,0.1,0.3,0.2,0.4,0.3c0.1,0.1,0.2,0.4,0.3,0.6l3.8,10.7h0.1l3.4-10.9c0.1-0.3,0.2-0.5,0.3-0.6
		c0.1-0.1,0.3-0.2,0.6-0.2s0.7-0.1,1.4-0.1c0.5,0,0.9,0,1.3,0.1c0.3,0,0.6,0.1,0.8,0.3s0.2,0.3,0.2,0.5c0,0.2,0,0.5-0.1,0.8
		L67.6,31.3z"/>
	<path d="M89.6,22.5c0,1.4-0.2,2.6-0.5,3.7c-0.4,1.1-0.9,2.1-1.6,2.9s-1.6,1.4-2.7,1.9c-1.1,0.4-2.4,0.7-3.9,0.7
		c-1.4,0-2.7-0.2-3.7-0.6c-1.1-0.4-1.9-1-2.6-1.7c-0.7-0.8-1.2-1.7-1.5-2.8c-0.3-1.1-0.5-2.4-0.5-3.8c0-1.4,0.2-2.6,0.5-3.7
		c0.4-1.1,0.9-2.1,1.6-2.9c0.7-0.8,1.6-1.4,2.7-1.9c1.1-0.4,2.4-0.7,3.8-0.7c1.4,0,2.7,0.2,3.7,0.6c1.1,0.4,1.9,1,2.6,1.7
		c0.7,0.8,1.2,1.7,1.5,2.8C89.5,19.8,89.6,21.1,89.6,22.5z M85,22.7c0-0.8-0.1-1.5-0.2-2.2s-0.3-1.2-0.6-1.7
		c-0.3-0.5-0.7-0.9-1.2-1.1c-0.5-0.3-1.1-0.4-1.9-0.4c-0.7,0-1.3,0.1-1.8,0.4s-0.9,0.6-1.2,1.1c-0.3,0.5-0.6,1-0.7,1.7
		s-0.2,1.4-0.2,2.3c0,0.8,0.1,1.5,0.2,2.2s0.3,1.2,0.6,1.7c0.3,0.5,0.7,0.9,1.2,1.1c0.5,0.3,1.1,0.4,1.9,0.4c0.7,0,1.3-0.1,1.8-0.4
		c0.5-0.2,0.9-0.6,1.2-1.1c0.3-0.5,0.6-1,0.7-1.7S85,23.6,85,22.7z"/>
	<path d="M105.8,15.8c0,0.6-0.1,1-0.2,1.3c-0.1,0.3-0.3,0.4-0.5,0.4h-1.9c0.3,0.3,0.5,0.6,0.6,1c0.1,0.4,0.2,0.7,0.2,1.1
		c0,0.9-0.2,1.8-0.5,2.5s-0.8,1.3-1.3,1.8s-1.3,0.9-2.1,1.1c-0.8,0.3-1.7,0.4-2.7,0.4c-0.5,0-1-0.1-1.5-0.2
		c-0.5-0.1-0.8-0.3-1.1-0.4c-0.1,0.2-0.3,0.3-0.4,0.6c-0.1,0.2-0.2,0.5-0.2,0.7c0,0.3,0.2,0.6,0.5,0.9c0.3,0.2,0.7,0.3,1.3,0.4
		l3.9,0.1c0.9,0,1.7,0.2,2.4,0.4c0.7,0.2,1.3,0.5,1.8,0.9c0.5,0.4,0.9,0.9,1.1,1.4s0.4,1.2,0.4,1.9c0,0.8-0.2,1.5-0.5,2.2
		c-0.3,0.7-0.9,1.3-1.6,1.8c-0.7,0.5-1.6,0.9-2.6,1.2c-1,0.3-2.3,0.4-3.7,0.4c-1.4,0-2.5-0.1-3.5-0.3S92,37,91.4,36.6
		c-0.6-0.4-1.1-0.8-1.3-1.4c-0.3-0.5-0.4-1.1-0.4-1.7c0-0.4,0.1-0.8,0.2-1.1c0.1-0.4,0.3-0.7,0.4-1c0.2-0.3,0.4-0.6,0.7-0.9
		c0.3-0.3,0.6-0.6,1-0.9c-0.5-0.3-0.9-0.6-1.2-1.1c-0.3-0.5-0.4-1-0.4-1.5c0-0.7,0.2-1.3,0.5-1.9c0.3-0.6,0.7-1.1,1.3-1.6
		c-0.4-0.4-0.8-0.9-1-1.5c-0.3-0.6-0.4-1.3-0.4-2.2c0-0.9,0.2-1.8,0.5-2.5c0.3-0.7,0.8-1.4,1.4-1.9c0.6-0.5,1.3-0.9,2.1-1.2
		c0.8-0.3,1.7-0.4,2.7-0.4c0.5,0,1,0,1.4,0.1c0.5,0.1,0.9,0.1,1.3,0.3h5.1c0.2,0,0.4,0.1,0.5,0.4C105.7,14.7,105.8,15.2,105.8,15.8z
		 M101,32.3c0-0.5-0.2-0.9-0.6-1.2s-1-0.4-1.8-0.5l-3.2-0.1c-0.3,0.2-0.6,0.4-0.7,0.7c-0.2,0.2-0.3,0.4-0.4,0.6
		C94.1,32,94,32.2,94,32.4c0,0.2-0.1,0.4-0.1,0.6c0,0.6,0.3,1.1,0.9,1.4c0.6,0.3,1.5,0.5,2.6,0.5c0.7,0,1.3-0.1,1.7-0.2
		c0.5-0.1,0.8-0.3,1.1-0.5c0.3-0.2,0.5-0.5,0.6-0.8C101,32.9,101,32.7,101,32.3z M100,19.6c0-0.9-0.2-1.5-0.7-2s-1.2-0.7-2-0.7
		c-0.4,0-0.8,0.1-1.2,0.2c-0.3,0.1-0.6,0.4-0.8,0.6c-0.2,0.3-0.4,0.6-0.5,0.9s-0.2,0.7-0.2,1.1c0,0.8,0.2,1.5,0.7,1.9s1.1,0.7,2,0.7
		c0.5,0,0.8-0.1,1.2-0.2c0.3-0.1,0.6-0.3,0.8-0.6c0.2-0.3,0.4-0.5,0.5-0.9C99.9,20.3,100,19.9,100,19.6z"/>
	<path d="M122.1,30.7c0,0.1,0,0.2-0.1,0.3c-0.1,0.1-0.2,0.2-0.3,0.2c-0.1,0.1-0.3,0.1-0.6,0.1c-0.2,0-0.6,0-0.9,0c-0.4,0-0.7,0-1,0
		c-0.2,0-0.4-0.1-0.6-0.1c-0.1-0.1-0.2-0.1-0.3-0.2c-0.1-0.1-0.1-0.2-0.1-0.3v-1.8c-0.9,1-1.8,1.7-2.7,2.1c-0.9,0.5-1.9,0.7-2.8,0.7
		c-1.1,0-2-0.2-2.8-0.5c-0.7-0.4-1.3-0.8-1.8-1.5s-0.8-1.3-1-2.2c-0.2-0.8-0.3-1.8-0.3-3.1v-9.8c0-0.1,0-0.2,0.1-0.3
		c0.1-0.1,0.2-0.2,0.4-0.2c0.2-0.1,0.4-0.1,0.7-0.1c0.3,0,0.7,0,1.1,0c0.4,0,0.8,0,1.1,0c0.3,0,0.5,0.1,0.7,0.1
		c0.2,0.1,0.3,0.1,0.4,0.2c0.1,0.1,0.1,0.2,0.1,0.3v9c0,0.8,0.1,1.5,0.2,1.9c0.1,0.4,0.3,0.8,0.5,1.1s0.5,0.6,0.8,0.7
		s0.7,0.3,1.2,0.3c0.6,0,1.1-0.2,1.7-0.6s1.2-1,1.9-1.8V14.7c0-0.1,0-0.2,0.1-0.3c0.1-0.1,0.2-0.2,0.4-0.2c0.2-0.1,0.4-0.1,0.7-0.1
		c0.3,0,0.7,0,1.1,0c0.4,0,0.8,0,1.1,0c0.3,0,0.5,0.1,0.7,0.1c0.2,0.1,0.3,0.1,0.4,0.2s0.1,0.2,0.1,0.3V30.7z"/>
	<path d="M135,16.2c0,0.4,0,0.8,0,1.1c0,0.3-0.1,0.5-0.1,0.6c0,0.2-0.1,0.3-0.2,0.3c-0.1,0.1-0.2,0.1-0.3,0.1c-0.1,0-0.2,0-0.3-0.1
		c-0.1,0-0.3-0.1-0.4-0.1c-0.1,0-0.3-0.1-0.5-0.1c-0.2,0-0.4-0.1-0.6-0.1c-0.3,0-0.5,0.1-0.8,0.2c-0.3,0.1-0.5,0.3-0.8,0.5
		c-0.3,0.2-0.5,0.5-0.8,0.9s-0.6,0.8-0.9,1.3v10c0,0.1,0,0.2-0.1,0.3c-0.1,0.1-0.2,0.2-0.4,0.2c-0.2,0.1-0.4,0.1-0.7,0.1
		c-0.3,0-0.7,0-1.1,0c-0.4,0-0.8,0-1.1,0s-0.5-0.1-0.7-0.1c-0.2-0.1-0.3-0.1-0.4-0.2c-0.1-0.1-0.1-0.2-0.1-0.3v-16
		c0-0.1,0-0.2,0.1-0.3c0.1-0.1,0.2-0.2,0.3-0.2c0.2-0.1,0.4-0.1,0.6-0.1c0.2,0,0.6,0,0.9,0c0.4,0,0.7,0,0.9,0c0.3,0,0.4,0.1,0.6,0.1
		s0.2,0.1,0.3,0.2s0.1,0.2,0.1,0.3v2c0.4-0.6,0.8-1.1,1.2-1.5c0.4-0.4,0.7-0.7,1.1-0.9c0.3-0.2,0.7-0.4,1-0.5c0.3-0.1,0.7-0.1,1-0.1
		c0.2,0,0.3,0,0.5,0c0.2,0,0.4,0,0.6,0.1c0.2,0,0.4,0.1,0.5,0.1c0.1,0.1,0.2,0.1,0.3,0.2c0.1,0.1,0.1,0.1,0.1,0.2s0.1,0.2,0.1,0.3
		s0,0.3,0.1,0.6C135,15.4,135,15.8,135,16.2z"/>
	<path d="M145.4,29.1c0,0.5,0,0.9-0.1,1.2c-0.1,0.3-0.2,0.5-0.3,0.6c-0.1,0.1-0.3,0.2-0.5,0.3c-0.2,0.1-0.5,0.2-0.7,0.2
		c-0.3,0.1-0.6,0.1-0.9,0.2c-0.3,0-0.7,0.1-1,0.1c-0.9,0-1.7-0.1-2.3-0.3c-0.7-0.2-1.2-0.6-1.6-1c-0.4-0.5-0.7-1.1-0.9-1.8
		c-0.2-0.7-0.3-1.6-0.3-2.5v-8.2h-1.9c-0.2,0-0.4-0.1-0.5-0.4c-0.1-0.3-0.2-0.7-0.2-1.4c0-0.3,0-0.6,0-0.9s0.1-0.4,0.1-0.6
		c0.1-0.1,0.1-0.2,0.2-0.3c0.1-0.1,0.2-0.1,0.3-0.1h1.9v-3.6c0-0.1,0-0.2,0.1-0.3c0.1-0.1,0.2-0.2,0.4-0.2c0.2-0.1,0.4-0.1,0.7-0.1
		c0.3,0,0.7,0,1.1,0c0.4,0,0.8,0,1.1,0s0.5,0.1,0.7,0.1c0.2,0.1,0.3,0.1,0.4,0.2c0.1,0.1,0.1,0.2,0.1,0.3v3.6h3.5
		c0.1,0,0.2,0,0.3,0.1c0.1,0.1,0.2,0.2,0.2,0.3c0.1,0.1,0.1,0.3,0.1,0.6c0,0.2,0,0.5,0,0.9c0,0.7-0.1,1.1-0.2,1.4
		c-0.1,0.3-0.3,0.4-0.5,0.4h-3.5v7.5c0,0.9,0.1,1.5,0.4,2c0.3,0.4,0.8,0.7,1.5,0.7c0.2,0,0.5,0,0.6-0.1c0.2,0,0.4-0.1,0.5-0.1
		c0.1-0.1,0.3-0.1,0.4-0.1c0.1,0,0.2-0.1,0.3-0.1c0.1,0,0.1,0,0.2,0.1c0.1,0,0.1,0.1,0.2,0.3c0,0.1,0.1,0.3,0.1,0.5
		C145.4,28.5,145.4,28.8,145.4,29.1z"/>
</g>
</svg>
