<svg id="_x31__x2C_5" enable-background="new 0 0 24 24" height="512" viewBox="0 0 24 24" width="512" xmlns="http://www.w3.org/2000/svg"><path d="m8.75 24h-6.5c-1.24 0-2.25-1.009-2.25-2.25v-13.5c0-1.241 1.01-2.25 2.25-2.25h6.5c1.24 0 2.25 1.009 2.25 2.25v13.5c0 1.241-1.01 2.25-2.25 2.25zm-6.5-16.5c-.413 0-.75.336-.75.75v13.5c0 .414.337.75.75.75h6.5c.413 0 .75-.336.75-.75v-13.5c0-.414-.337-.75-.75-.75z"/><path d="m10.25 21h-9.5c-.414 0-.75-.336-.75-.75s.336-.75.75-.75h9.5c.414 0 .75.336.75.75s-.336.75-.75.75z"/><path d="m15 14.75c-.192 0-.384-.073-.53-.22-.293-.293-.293-.768 0-1.061l3.5-3.5c.293-.293.768-.293 1.061 0s.293.768 0 1.061l-3.5 3.5c-.147.147-.339.22-.531.22z"/><path d="m17.25 15h-2.5c-.414 0-.75-.336-.75-.75v-2.5c0-.414.336-.75.75-.75s.75.336.75.75v1.75h1.75c.414 0 .75.336.75.75s-.336.75-.75.75z"/><path d="m21.25 22h-8c-.414 0-.75-.336-.75-.75s.336-.75.75-.75h8c.689 0 1.25-.561 1.25-1.25v-16.5c0-.689-.561-1.25-1.25-1.25h-18.5c-.689 0-1.25.561-1.25 1.25v1.26c0 .414-.336.75-.75.75s-.75-.336-.75-.75v-1.26c0-1.517 1.233-2.75 2.75-2.75h18.5c1.517 0 2.75 1.233 2.75 2.75v16.5c0 1.517-1.233 2.75-2.75 2.75z"/><path d="m23.25 5h-12.46c-.414 0-.75-.336-.75-.75s.336-.75.75-.75h12.46c.414 0 .75.336.75.75s-.336.75-.75.75z"/></svg>